<svg width="20" height="20" viewBox="0 0 20 20" fill="none" xmlns="http://www.w3.org/2000/svg">
<path d="M9.16659 1.66699C7.51841 1.66699 5.90725 2.15573 4.53684 3.07141C3.16643 3.98709 2.09832 5.28858 1.46759 6.8113C0.836863 8.33401 0.671835 10.0096 0.993378 11.6261C1.31492 13.2426 2.10859 14.7274 3.27403 15.8929C4.43947 17.0583 5.92433 17.852 7.54084 18.1735C9.15734 18.4951 10.8329 18.3301 12.3556 17.6993C13.8783 17.0686 15.1798 16.0005 16.0955 14.6301C17.0112 13.2597 17.4999 11.6485 17.4999 10.0003C17.4999 8.90598 17.2844 7.82234 16.8656 6.8113C16.4468 5.80025 15.833 4.88159 15.0591 4.10777C14.2853 3.33395 13.3667 2.72012 12.3556 2.30133C11.3446 1.88254 10.2609 1.66699 9.16659 1.66699V1.66699ZM9.16659 16.667C7.84805 16.667 6.55911 16.276 5.46279 15.5435C4.36646 14.8109 3.51198 13.7697 3.00739 12.5515C2.50281 11.3334 2.37079 9.99293 2.62802 8.69972C2.88526 7.40652 3.52019 6.21863 4.45254 5.28628C5.38489 4.35393 6.57278 3.71899 7.86599 3.46176C9.15919 3.20452 10.4996 3.33654 11.7178 3.84113C12.936 4.34571 13.9772 5.2002 14.7097 6.29652C15.4423 7.39285 15.8333 8.68178 15.8333 10.0003C15.8333 11.7684 15.1309 13.4641 13.8806 14.7144C12.6304 15.9646 10.9347 16.667 9.16659 16.667V16.667ZM9.16659 5.00033C8.94558 5.00033 8.73361 5.08812 8.57733 5.2444C8.42105 5.40068 8.33326 5.61265 8.33326 5.83366V9.51699L6.58326 10.5253C6.42272 10.6163 6.29692 10.758 6.22557 10.9281C6.15423 11.0983 6.14138 11.2873 6.18904 11.4656C6.23671 11.6439 6.34218 11.8013 6.48893 11.9131C6.63568 12.025 6.81541 12.0849 6.99992 12.0837C7.1459 12.0847 7.28959 12.0473 7.41659 11.9753L9.58326 10.7253L9.65826 10.6503L9.79159 10.542C9.82417 10.5007 9.85212 10.456 9.87492 10.4087C9.90208 10.3639 9.92443 10.3164 9.94159 10.267C9.96426 10.214 9.97832 10.1577 9.98326 10.1003C9.98326 10.1003 9.99992 10.0003 9.99992 10.0003V5.83366C9.99992 5.61265 9.91212 5.40068 9.75584 5.2444C9.59956 5.08812 9.3876 5.00033 9.16659 5.00033Z" fill="#808080"/>
</svg>
