<svg width="24" height="24" viewBox="0 0 24 24" fill="none" xmlns="http://www.w3.org/2000/svg">
<path d="M16.9999 8.61008L15.9999 2.84008C15.9616 2.60346 15.8395 2.38848 15.656 2.2343C15.4724 2.08012 15.2396 1.997 14.9999 2.00008H8.99989C8.7602 1.997 8.52738 2.08012 8.34383 2.2343C8.16028 2.38848 8.03823 2.60346 7.99989 2.84008L6.99989 8.61008C6.31626 9.60842 5.95044 10.7901 5.95044 12.0001C5.95044 13.2101 6.31626 14.3917 6.99989 15.3901L7.99989 21.1601C8.03823 21.3967 8.16028 21.6117 8.34383 21.7659C8.52738 21.92 8.7602 22.0032 8.99989 22.0001H14.9999C15.2396 22.0032 15.4724 21.92 15.656 21.7659C15.8395 21.6117 15.9616 21.3967 15.9999 21.1601L16.9999 15.3901C17.6835 14.3917 18.0493 13.2101 18.0493 12.0001C18.0493 10.7901 17.6835 9.60842 16.9999 8.61008ZM9.84989 4.00008H14.1499L14.5899 6.59008C13.7813 6.20314 12.8963 6.00228 11.9999 6.00228C11.1035 6.00228 10.2185 6.20314 9.40989 6.59008L9.84989 4.00008ZM14.1499 20.0001H9.84989L9.40989 17.4101C10.2185 17.797 11.1035 17.9979 11.9999 17.9979C12.8963 17.9979 13.7813 17.797 14.5899 17.4101L14.1499 20.0001ZM11.9999 16.0001C11.2088 16.0001 10.4354 15.7655 9.77761 15.326C9.11982 14.8864 8.60713 14.2617 8.30438 13.5308C8.00163 12.7999 7.92241 11.9956 8.07675 11.2197C8.23109 10.4438 8.61206 9.73107 9.17147 9.17166C9.73088 8.61225 10.4436 8.23128 11.2195 8.07694C11.9955 7.9226 12.7997 8.00181 13.5306 8.30456C14.2615 8.60732 14.8862 9.12001 15.3258 9.7778C15.7653 10.4356 15.9999 11.209 15.9999 12.0001C15.9999 13.0609 15.5785 14.0784 14.8283 14.8285C14.0782 15.5787 13.0608 16.0001 11.9999 16.0001Z" fill="#808080"/>
</svg>
