<svg width="24" height="24" viewBox="0 0 24 24" fill="none" xmlns="http://www.w3.org/2000/svg">
<path d="M12.43 4.09979C12.2676 4.02953 12.0895 4.00362 11.9138 4.0247C11.7381 4.04578 11.5712 4.1131 11.43 4.21979L6.65 7.99979H3C2.73478 7.99979 2.48043 8.10514 2.29289 8.29268C2.10536 8.48022 2 8.73457 2 8.99979V14.9998C2 15.265 2.10536 15.5194 2.29289 15.7069C2.48043 15.8944 2.73478 15.9998 3 15.9998H6.65L11.38 19.7798C11.5559 19.9209 11.7744 19.9985 12 19.9998C12.1494 20.0023 12.297 19.9679 12.43 19.8998C12.6002 19.8187 12.744 19.6912 12.8448 19.532C12.9457 19.3728 12.9995 19.1883 13 18.9998V4.99979C12.9995 4.8113 12.9457 4.6268 12.8448 4.46757C12.744 4.30833 12.6002 4.18084 12.43 4.09979V4.09979ZM11 16.9198L7.62 14.2198C7.44406 14.0786 7.22556 14.0011 7 13.9998H4V9.99979H7C7.22556 9.99848 7.44406 9.92095 7.62 9.77979L11 7.07979V16.9198ZM19.91 11.9998L21.71 10.2098C21.8032 10.1165 21.8772 10.0059 21.9277 9.88404C21.9781 9.76222 22.0041 9.63165 22.0041 9.49979C22.0041 9.36793 21.9781 9.23736 21.9277 9.11554C21.8772 8.99372 21.8032 8.88303 21.71 8.78979C21.6168 8.69655 21.5061 8.62259 21.3842 8.57213C21.2624 8.52167 21.1319 8.4957 21 8.4957C20.8681 8.4957 20.7376 8.52167 20.6158 8.57213C20.4939 8.62259 20.3832 8.69655 20.29 8.78979L18.5 10.5898L16.71 8.78979C16.5217 8.60148 16.2663 8.4957 16 8.4957C15.7337 8.4957 15.4783 8.60148 15.29 8.78979C15.1017 8.97809 14.9959 9.23349 14.9959 9.49979C14.9959 9.76609 15.1017 10.0215 15.29 10.2098L17.09 11.9998L15.29 13.7898C15.1963 13.8828 15.1219 13.9934 15.0711 14.1152C15.0203 14.2371 14.9942 14.3678 14.9942 14.4998C14.9942 14.6318 15.0203 14.7625 15.0711 14.8844C15.1219 15.0062 15.1963 15.1168 15.29 15.2098C15.383 15.3035 15.4936 15.3779 15.6154 15.4287C15.7373 15.4794 15.868 15.5056 16 15.5056C16.132 15.5056 16.2627 15.4794 16.3846 15.4287C16.5064 15.3779 16.617 15.3035 16.71 15.2098L18.5 13.4098L20.29 15.2098C20.383 15.3035 20.4936 15.3779 20.6154 15.4287C20.7373 15.4794 20.868 15.5056 21 15.5056C21.132 15.5056 21.2627 15.4794 21.3846 15.4287C21.5064 15.3779 21.617 15.3035 21.71 15.2098C21.8037 15.1168 21.8781 15.0062 21.9289 14.8844C21.9797 14.7625 22.0058 14.6318 22.0058 14.4998C22.0058 14.3678 21.9797 14.2371 21.9289 14.1152C21.8781 13.9934 21.8037 13.8828 21.71 13.7898L19.91 11.9998Z" fill="white"/>
</svg>
