<svg width="24" height="24" viewBox="0 0 24 24" fill="none" xmlns="http://www.w3.org/2000/svg">
<path d="M9.88008 14.1203L9.73008 14.0003L9.55008 13.9003L9.37008 13.8503C9.20943 13.8182 9.04333 13.826 8.88639 13.873C8.72946 13.9201 8.5865 14.005 8.47008 14.1203C8.37116 14.2109 8.29567 14.3242 8.25008 14.4503C8.19717 14.57 8.16985 14.6995 8.16985 14.8303C8.16985 14.9612 8.19717 15.0906 8.25008 15.2103C8.35753 15.4506 8.54979 15.6429 8.79008 15.7503C8.9103 15.8016 9.0394 15.8287 9.17008 15.8303C9.30389 15.8278 9.43609 15.8007 9.56008 15.7503C9.68196 15.702 9.79135 15.6268 9.88008 15.5303C9.97362 15.4391 10.0484 15.3303 10.1001 15.2103C10.1479 15.0894 10.1717 14.9603 10.1701 14.8303C10.1735 14.6991 10.1461 14.569 10.0901 14.4503C10.0443 14.3267 9.97268 14.2142 9.88008 14.1203V14.1203ZM3.51008 8.76032C3.64239 8.75978 3.77327 8.73298 3.89515 8.68148C4.01702 8.62998 4.12746 8.55481 4.22008 8.46032L8.46008 4.22032C8.64633 4.03296 8.75087 3.77951 8.75087 3.51532C8.75087 3.25114 8.64633 2.99769 8.46008 2.81032C8.27272 2.62407 8.01927 2.51953 7.75508 2.51953C7.49089 2.51953 7.23744 2.62407 7.05008 2.81032L2.81008 7.05032C2.62383 7.23769 2.51929 7.49114 2.51929 7.75532C2.51929 8.01951 2.62383 8.27296 2.81008 8.46032C2.99471 8.64874 3.24631 8.75657 3.51008 8.76032V8.76032ZM21.1901 15.5403C21.0027 15.3541 20.7493 15.2495 20.4851 15.2495C20.2209 15.2495 19.9674 15.3541 19.7801 15.5403L15.5401 19.7803C15.3997 19.9196 15.3037 20.0974 15.2643 20.2912C15.2249 20.485 15.2439 20.6861 15.3188 20.8692C15.3937 21.0522 15.5213 21.2089 15.6852 21.3195C15.8492 21.43 16.0423 21.4895 16.2401 21.4903C16.3724 21.4898 16.5033 21.463 16.6251 21.4115C16.747 21.36 16.8575 21.2848 16.9501 21.1903L21.1901 17.0003C21.29 16.9068 21.3696 16.7937 21.4241 16.6682C21.4785 16.5426 21.5066 16.4072 21.5066 16.2703C21.5066 16.1335 21.4785 15.9981 21.4241 15.8725C21.3696 15.7469 21.29 15.6339 21.1901 15.5403V15.5403ZM21.3601 9.88032C21.362 9.08638 21.0492 8.32403 20.4901 7.76032L16.2401 3.51032C15.6678 2.96732 14.909 2.6646 14.1201 2.6646C13.3312 2.6646 12.5724 2.96732 12.0001 3.51032L3.51008 12.0003C2.94828 12.5628 2.63272 13.3253 2.63272 14.1203C2.63272 14.9153 2.94828 15.6778 3.51008 16.2403L7.76008 20.4903C8.32258 21.0521 9.08508 21.3677 9.88008 21.3677C10.6751 21.3677 11.4376 21.0521 12.0001 20.4903L20.4901 12.0003C21.0492 11.4366 21.362 10.6743 21.3601 9.88032V9.88032ZM19.0701 10.5903L10.5901 19.0703C10.4971 19.1641 10.3865 19.2384 10.2647 19.2892C10.1428 19.34 10.0121 19.3661 9.88008 19.3661C9.74807 19.3661 9.61736 19.34 9.4955 19.2892C9.37364 19.2384 9.26304 19.1641 9.17008 19.0703L4.93008 14.8303C4.83635 14.7374 4.76196 14.6268 4.71119 14.5049C4.66042 14.383 4.63428 14.2523 4.63428 14.1203C4.63428 13.9883 4.66042 13.8576 4.71119 13.7357C4.76196 13.6139 4.83635 13.5033 4.93008 13.4103L13.4101 4.93032C13.503 4.8366 13.6136 4.7622 13.7355 4.71143C13.8574 4.66066 13.9881 4.63453 14.1201 4.63453C14.2521 4.63453 14.3828 4.66066 14.5047 4.71143C14.6265 4.7622 14.7371 4.8366 14.8301 4.93032L19.0701 9.17032C19.1638 9.26329 19.2382 9.37389 19.289 9.49575C19.3397 9.61761 19.3659 9.74831 19.3659 9.88032C19.3659 10.0123 19.3397 10.143 19.289 10.2649C19.2382 10.3868 19.1638 10.4974 19.0701 10.5903Z" fill="white"/>
</svg>
