<svg width="14" height="14" viewBox="0 0 14 14" fill="none" xmlns="http://www.w3.org/2000/svg">
<path d="M1.15249 4.13402C1.25627 3.41956 1.84063 2.86115 2.55973 2.79696C2.63074 2.79063 2.70191 2.78425 2.77324 2.77785C3.95623 2.67185 5.18257 2.56195 6.43942 2.56195C7.69627 2.56195 8.9226 2.67185 10.1056 2.77785C10.1769 2.78425 10.2481 2.79063 10.3191 2.79696C11.0382 2.86115 11.6226 3.41956 11.7263 4.13402C11.7461 4.26974 11.7659 4.40617 11.7853 4.54326C11.911 4.55537 12.0356 4.57098 12.1588 4.58818C12.6339 4.65444 13.0023 5.05301 13.0426 5.531C13.0828 6.00707 13.1209 6.49809 13.1209 6.99997C13.1209 7.50185 13.0828 7.99286 13.0426 8.46893C13.0023 8.94693 12.6339 9.34549 12.1588 9.41176C12.0356 9.42895 11.911 9.44456 11.7853 9.45667C11.7659 9.59377 11.7461 9.73019 11.7263 9.8659C11.6226 10.5804 11.0382 11.1388 10.3191 11.203C10.2481 11.2093 10.1769 11.2157 10.1056 11.2221C8.9226 11.3281 7.69627 11.438 6.43942 11.438C5.18256 11.438 3.95622 11.3281 2.77322 11.2221C2.7019 11.2157 2.63073 11.2093 2.55972 11.203C1.84063 11.1388 1.25627 10.5804 1.15249 9.8659C1.01802 8.9402 0.87912 7.98171 0.87912 6.99996C0.87912 6.01822 1.01802 5.05972 1.15249 4.13402Z" stroke="white" stroke-width="1.5"/>
</svg>
