<svg width="14" height="14" viewBox="0 0 14 14" fill="none" xmlns="http://www.w3.org/2000/svg">
<path d="M1.15252 4.13408C1.2563 3.41962 1.84066 2.86121 2.55976 2.79703C2.63077 2.79069 2.70194 2.78431 2.77327 2.77792C3.95626 2.67191 5.1826 2.56201 6.43945 2.56201C7.6963 2.56201 8.92263 2.67191 10.1056 2.77792C10.177 2.78431 10.2481 2.79069 10.3191 2.79703C11.0382 2.86121 11.6226 3.41962 11.7264 4.13408C11.7461 4.2698 11.7659 4.40623 11.7854 4.54333C11.911 4.55543 12.0356 4.57104 12.1589 4.58824C12.634 4.6545 13.0023 5.05307 13.0427 5.53106C13.0829 6.00713 13.1209 6.49815 13.1209 7.00003C13.1209 7.50191 13.0829 7.99292 13.0427 8.46899C13.0023 8.94699 12.634 9.34555 12.1589 9.41182C12.0356 9.42901 11.911 9.44462 11.7854 9.45673C11.7659 9.59383 11.7461 9.73025 11.7264 9.86596C11.6226 10.5804 11.0382 11.1388 10.3191 11.203C10.2481 11.2094 10.177 11.2157 10.1056 11.2221C8.92263 11.3281 7.6963 11.438 6.43945 11.438C5.18259 11.438 3.95625 11.3281 2.77325 11.2221C2.70193 11.2157 2.63076 11.2094 2.55975 11.203C1.84066 11.1388 1.2563 10.5804 1.15252 9.86596C1.01805 8.94026 0.87915 7.98177 0.87915 7.00002C0.87915 6.01828 1.01805 5.05978 1.15252 4.13408Z" stroke="white" stroke-width="1.5"/>
<path d="M6.44568 5.23499L6.44568 8.76498" stroke="white" stroke-width="1.5" stroke-linecap="round" stroke-linejoin="round"/>
<path d="M3.69336 5.23499L3.69336 8.76498" stroke="white" stroke-width="1.5" stroke-linecap="round" stroke-linejoin="round"/>
</svg>
