<svg width="25" height="24" viewBox="0 0 25 24" fill="none" xmlns="http://www.w3.org/2000/svg">
<rect width="25" height="24" rx="4" fill="#FF7B7B"/>
<path d="M11.4583 6H7.29158C7.01532 6 6.75037 6.10536 6.55502 6.29289C6.35967 6.48043 6.24992 6.73478 6.24992 7C6.24992 7.26522 6.35967 7.51957 6.55502 7.70711C6.75037 7.89464 7.01532 8 7.29158 8H11.4583C11.7345 8 11.9995 7.89464 12.1948 7.70711C12.3902 7.51957 12.4999 7.26522 12.4999 7C12.4999 6.73478 12.3902 6.48043 12.1948 6.29289C11.9995 6.10536 11.7345 6 11.4583 6ZM19.7916 2H5.20825C4.37945 2 3.58459 2.31607 2.99854 2.87868C2.41249 3.44129 2.08325 4.20435 2.08325 5V19C2.08325 19.7956 2.41249 20.5587 2.99854 21.1213C3.58459 21.6839 4.37945 22 5.20825 22H19.7916C20.6204 22 21.4152 21.6839 22.0013 21.1213C22.5873 20.5587 22.9166 19.7956 22.9166 19V5C22.9166 4.20435 22.5873 3.44129 22.0013 2.87868C21.4152 2.31607 20.6204 2 19.7916 2ZM4.16659 18.59V5C4.16659 4.73478 4.27633 4.48043 4.47168 4.29289C4.66703 4.10536 4.93198 4 5.20825 4H19.3645L4.16659 18.59ZM20.8333 19C20.8333 19.2652 20.7235 19.5196 20.5282 19.7071C20.3328 19.8946 20.0679 20 19.7916 20H5.63533L20.8333 5.41V19ZM13.5416 17H14.5833V18C14.5833 18.2652 14.693 18.5196 14.8883 18.7071C15.0837 18.8946 15.3487 19 15.6249 19C15.9012 19 16.1661 18.8946 16.3615 18.7071C16.5568 18.5196 16.6666 18.2652 16.6666 18V17H17.7083C17.9845 17 18.2495 16.8946 18.4448 16.7071C18.6402 16.5196 18.7499 16.2652 18.7499 16C18.7499 15.7348 18.6402 15.4804 18.4448 15.2929C18.2495 15.1054 17.9845 15 17.7083 15H16.6666V14C16.6666 13.7348 16.5568 13.4804 16.3615 13.2929C16.1661 13.1054 15.9012 13 15.6249 13C15.3487 13 15.0837 13.1054 14.8883 13.2929C14.693 13.4804 14.5833 13.7348 14.5833 14V15H13.5416C13.2653 15 13.0004 15.1054 12.805 15.2929C12.6097 15.4804 12.4999 15.7348 12.4999 16C12.4999 16.2652 12.6097 16.5196 12.805 16.7071C13.0004 16.8946 13.2653 17 13.5416 17Z" fill="white"/>
</svg>
